<svg width="60" height="10" viewBox="0 0 60 10" fill="none" xmlns="http://www.w3.org/2000/svg">
<path d="M9.97394 3.62139C9.90847 3.4189 9.72887 3.27508 9.51639 3.25593L6.63011 2.99385L5.4888 0.322503C5.40465 0.126728 5.21299 0 5.00005 0C4.78711 0 4.59545 0.126727 4.5113 0.322961L3.36999 2.99385L0.483257 3.25593C0.271154 3.27554 0.0920116 3.4189 0.0261682 3.62139C-0.0396751 3.82387 0.0211327 4.04597 0.181583 4.18597L2.36326 6.09932L1.71994 8.93318C1.67286 9.14155 1.75374 9.35693 1.92662 9.4819C2.01955 9.54904 2.12827 9.58322 2.23791 9.58322C2.33244 9.58322 2.42621 9.55774 2.51036 9.50739L5.00005 8.01939L7.48882 9.50739C7.67094 9.61695 7.90052 9.60695 8.07302 9.4819C8.24599 9.35655 8.32678 9.14109 8.27971 8.93318L7.63638 6.09932L9.81806 4.18636C9.97851 4.04597 10.0398 3.82426 9.97394 3.62139Z" fill="#FFC107"/>
<path d="M22.4739 3.62139C22.4085 3.4189 22.2289 3.27508 22.0164 3.25593L19.1301 2.99385L17.9888 0.322503C17.9046 0.126728 17.713 0 17.5001 0C17.2871 0 17.0955 0.126727 17.0113 0.322961L15.87 2.99385L12.9833 3.25593C12.7712 3.27554 12.592 3.4189 12.5262 3.62139C12.4603 3.82387 12.5211 4.04597 12.6816 4.18597L14.8633 6.09932L14.2199 8.93318C14.1729 9.14155 14.2537 9.35693 14.4266 9.4819C14.5196 9.54904 14.6283 9.58322 14.7379 9.58322C14.8324 9.58322 14.9262 9.55774 15.0104 9.50739L17.5001 8.01939L19.9888 9.50739C20.1709 9.61695 20.4005 9.60695 20.573 9.4819C20.746 9.35655 20.8268 9.14109 20.7797 8.93318L20.1364 6.09932L22.3181 4.18636C22.4785 4.04597 22.5398 3.82426 22.4739 3.62139Z" fill="#FFC107"/>
<path d="M34.9739 3.62139C34.9085 3.4189 34.7289 3.27508 34.5164 3.25593L31.6301 2.99385L30.4888 0.322503C30.4046 0.126728 30.213 0 30.0001 0C29.7871 0 29.5955 0.126727 29.5113 0.322961L28.37 2.99385L25.4833 3.25593C25.2712 3.27554 25.092 3.4189 25.0262 3.62139C24.9603 3.82387 25.0211 4.04597 25.1816 4.18597L27.3633 6.09932L26.7199 8.93318C26.6729 9.14155 26.7537 9.35693 26.9266 9.4819C27.0196 9.54904 27.1283 9.58322 27.2379 9.58322C27.3324 9.58322 27.4262 9.55774 27.5104 9.50739L30.0001 8.01939L32.4888 9.50739C32.6709 9.61695 32.9005 9.60695 33.073 9.4819C33.246 9.35655 33.3268 9.14109 33.2797 8.93318L32.6364 6.09932L34.8181 4.18636C34.9785 4.04597 35.0398 3.82426 34.9739 3.62139Z" fill="#FFC107"/>
<path d="M47.4739 3.62139C47.4085 3.4189 47.2289 3.27508 47.0164 3.25593L44.1301 2.99385L42.9888 0.322503C42.9046 0.126728 42.713 0 42.5 0C42.2871 0 42.0955 0.126727 42.0113 0.322961L40.87 2.99385L37.9833 3.25593C37.7712 3.27554 37.592 3.4189 37.5262 3.62139C37.4603 3.82387 37.5211 4.04597 37.6816 4.18597L39.8633 6.09932L39.2199 8.93318C39.1729 9.14155 39.2537 9.35693 39.4266 9.4819C39.5196 9.54904 39.6283 9.58322 39.7379 9.58322C39.8324 9.58322 39.9262 9.55774 40.0104 9.50739L42.5 8.01939L44.9888 9.50739C45.1709 9.61695 45.4005 9.60695 45.573 9.4819C45.746 9.35655 45.8268 9.14109 45.7797 8.93318L45.1364 6.09932L47.3181 4.18636C47.4785 4.04597 47.5398 3.82426 47.4739 3.62139Z" fill="#FFC107"/>
<path d="M59.9739 3.62139C59.9085 3.4189 59.7289 3.27508 59.5164 3.25593L56.6301 2.99385L55.4888 0.322503C55.4046 0.126728 55.213 0 55 0C54.7871 0 54.5955 0.126727 54.5113 0.322961L53.37 2.99385L50.4833 3.25593C50.2712 3.27554 50.092 3.4189 50.0262 3.62139C49.9603 3.82387 50.0211 4.04597 50.1816 4.18597L52.3633 6.09932L51.7199 8.93318C51.6729 9.14155 51.7537 9.35693 51.9266 9.4819C52.0196 9.54904 52.1283 9.58322 52.2379 9.58322C52.3324 9.58322 52.4262 9.55774 52.5104 9.50739L55 8.01939L57.4888 9.50739C57.6709 9.61695 57.9005 9.60695 58.073 9.4819C58.246 9.35655 58.3268 9.14109 58.2797 8.93318L57.6364 6.09932L59.8181 4.18636C59.9785 4.04597 60.0398 3.82426 59.9739 3.62139Z" fill="#FFC107"/>
</svg>
