<svg width="249" height="20" viewBox="0 0 249 20" fill="none" xmlns="http://www.w3.org/2000/svg">
<path d="M19.9811 5.47372L18.8499 0.946244C18.7111 0.389998 18.2111 0 17.6374 0H2.36374C1.78999 0 1.28999 0.389998 1.14999 0.946244L0.0187499 5.47372C0.00624996 5.52247 0 5.57372 0 5.62497C0 7.34746 1.33124 8.74995 2.96873 8.74995C3.91998 8.74995 4.76872 8.2762 5.31247 7.5412C5.85621 8.2762 6.70496 8.74995 7.6562 8.74995C8.60745 8.74995 9.45619 8.2762 9.99994 7.5412C10.5437 8.2762 11.3912 8.74995 12.3437 8.74995C13.2962 8.74995 14.1437 8.2762 14.6874 7.5412C15.2312 8.2762 16.0787 8.74995 17.0311 8.74995C18.6686 8.74995 19.9999 7.34746 19.9999 5.62497C19.9999 5.57372 19.9936 5.52247 19.9811 5.47372Z" fill="#808080"/>
<path d="M17.0311 9.99995C16.1799 9.99995 15.3712 9.73995 14.6874 9.26495C13.3199 10.2162 11.3674 10.2162 9.99994 9.26495C8.63245 10.2162 6.67996 10.2162 5.31247 9.26495C4.62872 9.73995 3.81998 9.99995 2.96873 9.99995C2.35499 9.99995 1.77624 9.8562 1.24999 9.6112V16.2499C1.24999 16.9399 1.80999 17.4999 2.49998 17.4999H7.49995V12.4999H12.4999V17.4999H17.4999C18.1899 17.4999 18.7499 16.9399 18.7499 16.2499V9.6112C18.2236 9.8562 17.6449 9.99995 17.0311 9.99995Z" fill="#808080"/>
<path d="M91.6244 1.24999H90.2669C90.0095 0.522497 89.3145 0 88.4995 0C87.6845 0 86.9895 0.522497 86.7307 1.24999H85.3745C85.0295 1.24999 84.7495 1.52999 84.7495 1.87499V4.37497C84.7495 4.71997 85.0295 4.99997 85.3745 4.99997H91.6244C91.9694 4.99997 92.2494 4.71997 92.2494 4.37497V1.87499C92.2494 1.52999 91.9694 1.24999 91.6244 1.24999Z" fill="black" fill-opacity="0.5"/>
<path d="M94.7494 2.49998H93.4994V4.37497C93.4994 5.40872 92.6582 6.24996 91.6244 6.24996H85.3745C84.3407 6.24996 83.4995 5.40872 83.4995 4.37497V2.49998H82.2495C81.5608 2.49998 80.9995 3.06123 80.9995 3.74998V18.7499C80.9995 19.4511 81.5483 19.9999 82.2495 19.9999H94.7494C95.4507 19.9999 95.9994 19.4511 95.9994 18.7499V3.74998C95.9994 3.04873 95.4507 2.49998 94.7494 2.49998ZM88.317 13.5674L85.817 16.0674C85.6945 16.1887 85.5345 16.2499 85.3745 16.2499C85.2145 16.2499 85.0545 16.1887 84.932 16.0674L83.682 14.8174C83.4382 14.5737 83.4382 14.1774 83.682 13.9337C83.9257 13.6899 84.322 13.6899 84.5657 13.9337L85.3745 14.7412L87.432 12.6837C87.6757 12.4399 88.072 12.4399 88.3157 12.6837C88.5595 12.9274 88.5607 13.3224 88.317 13.5674ZM88.317 8.56745L85.817 11.0674C85.6945 11.1887 85.5345 11.2499 85.3745 11.2499C85.2145 11.2499 85.0545 11.1887 84.932 11.0674L83.682 9.81744C83.4382 9.57369 83.4382 9.17744 83.682 8.9337C83.9257 8.68995 84.322 8.68995 84.5657 8.9337L85.3745 9.74119L87.432 7.6837C87.6757 7.43995 88.072 7.43995 88.3157 7.6837C88.5595 7.92745 88.5607 8.32245 88.317 8.56745ZM92.8744 14.9999H90.3744C90.0295 14.9999 89.7495 14.7199 89.7495 14.3749C89.7495 14.0299 90.0295 13.7499 90.3744 13.7499H92.8744C93.2194 13.7499 93.4994 14.0299 93.4994 14.3749C93.4994 14.7199 93.2194 14.9999 92.8744 14.9999ZM92.8744 9.99994H90.3744C90.0295 9.99994 89.7495 9.71994 89.7495 9.37494C89.7495 9.02995 90.0295 8.74995 90.3744 8.74995H92.8744C93.2194 8.74995 93.4994 9.02995 93.4994 9.37494C93.4994 9.71994 93.2194 9.99994 92.8744 9.99994Z" fill="black" fill-opacity="0.5"/>
<path d="M156.999 0.999994C156.999 0.447713 157.447 0 157.999 0H169.935C170.487 0 170.935 0.447713 170.935 0.999994V17.5711C170.935 18.464 169.853 18.9093 169.225 18.2752L164.808 13.8208C164.423 13.4321 163.796 13.4255 163.403 13.8061L158.694 18.3602C158.06 18.9741 156.999 18.5243 156.999 17.6415V0.999994Z" fill="black" fill-opacity="0.5"/>
<path d="M240.151 9.634C241.475 9.634 242.621 9.1593 243.557 8.22273C244.494 7.2863 244.968 6.14053 244.968 4.81685C244.968 3.49362 244.494 2.34769 243.557 1.41097C242.62 0.474696 241.475 0 240.151 0C238.827 0 237.682 0.474696 236.745 1.41112C235.809 2.34754 235.334 3.49346 235.334 4.81685C235.334 6.14053 235.809 7.28646 236.745 8.22288C237.682 9.15915 238.828 9.634 240.151 9.634Z" fill="black" fill-opacity="0.5"/>
<path d="M248.58 15.3789C248.553 14.9892 248.498 14.5641 248.418 14.1152C248.337 13.6629 248.232 13.2354 248.107 12.8446C247.978 12.4407 247.802 12.0418 247.585 11.6596C247.359 11.2629 247.094 10.9174 246.797 10.6332C246.486 10.3358 246.106 10.0967 245.666 9.92225C245.227 9.74876 244.741 9.66087 244.221 9.66087C244.017 9.66087 243.82 9.74464 243.438 9.9929C243.204 10.1459 242.929 10.3229 242.623 10.5187C242.361 10.6856 242.006 10.842 241.567 10.9836C241.14 11.122 240.705 11.1922 240.277 11.1922C239.848 11.1922 239.414 11.122 238.986 10.9836C238.548 10.8422 238.193 10.6858 237.931 10.5189C237.628 10.3249 237.353 10.1479 237.115 9.99275C236.734 9.74449 236.537 9.66072 236.333 9.66072C235.813 9.66072 235.327 9.74876 234.888 9.92241C234.449 10.0965 234.068 10.3356 233.757 10.6333C233.46 10.9177 233.195 11.263 232.969 11.6596C232.752 12.0418 232.576 12.4405 232.447 12.8447C232.322 13.2355 232.218 13.6629 232.136 14.1152C232.056 14.5635 232.001 14.9887 231.974 15.3794C231.948 15.762 231.934 16.1592 231.934 16.5604C231.934 17.6044 232.266 18.4495 232.921 19.0729C233.567 19.6879 234.422 20 235.462 20H245.092C246.132 20 246.987 19.6881 247.634 19.0729C248.288 18.45 248.62 17.6047 248.62 16.5602C248.62 16.1572 248.607 15.7597 248.58 15.3789Z" fill="black" fill-opacity="0.5"/>
</svg>
