<svg width="257" height="20" viewBox="0 0 257 20" fill="none" xmlns="http://www.w3.org/2000/svg">
<path d="M19.9812 6.72375L18.85 2.19625C18.7113 1.64 18.2113 1.25 17.6375 1.25H2.36375C1.79 1.25 1.29 1.64 1.15 2.19625L0.01875 6.72375C0.00625 6.7725 0 6.82375 0 6.875C0 8.5975 1.33125 10 2.96875 10C3.92 10 4.76875 9.52625 5.3125 8.79125C5.85625 9.52625 6.705 10 7.65625 10C8.6075 10 9.45625 9.52625 10 8.79125C10.5437 9.52625 11.3912 10 12.3438 10C13.2963 10 14.1438 9.52625 14.6875 8.79125C15.2312 9.52625 16.0788 10 17.0312 10C18.6688 10 20 8.5975 20 6.875C20 6.82375 19.9937 6.7725 19.9812 6.72375Z" fill="black" fill-opacity="0.5"/>
<path d="M17.0312 11.2499C16.18 11.2499 15.3713 10.9899 14.6875 10.5149C13.32 11.4661 11.3675 11.4661 10 10.5149C8.6325 11.4661 6.68 11.4661 5.3125 10.5149C4.62875 10.9899 3.82 11.2499 2.96875 11.2499C2.355 11.2499 1.77625 11.1061 1.25 10.8611V17.4999C1.25 18.1899 1.81 18.7499 2.5 18.7499H7.5V13.7499H12.5V18.7499H17.5C18.19 18.7499 18.75 18.1899 18.75 17.4999V10.8611C18.2237 11.1061 17.645 11.2499 17.0312 11.2499Z" fill="black" fill-opacity="0.5"/>
<path d="M94.125 1.25H92.7675C92.51 0.5225 91.815 0 91 0C90.185 0 89.49 0.5225 89.2313 1.25H87.875C87.53 1.25 87.25 1.53 87.25 1.875V4.375C87.25 4.72 87.53 5 87.875 5H94.125C94.47 5 94.75 4.72 94.75 4.375V1.875C94.75 1.53 94.47 1.25 94.125 1.25Z" fill="#D35400"/>
<path d="M97.25 2.5H96V4.375C96 5.40875 95.1587 6.25 94.125 6.25H87.875C86.8412 6.25 86 5.40875 86 4.375V2.5H84.75C84.0612 2.5 83.5 3.06125 83.5 3.75V18.75C83.5 19.4513 84.0488 20 84.75 20H97.25C97.9513 20 98.5 19.4513 98.5 18.75V3.75C98.5 3.04875 97.9513 2.5 97.25 2.5ZM90.8175 13.5675L88.3175 16.0675C88.195 16.1888 88.035 16.25 87.875 16.25C87.715 16.25 87.555 16.1888 87.4325 16.0675L86.1825 14.8175C85.9387 14.5738 85.9387 14.1775 86.1825 13.9338C86.4262 13.69 86.8225 13.69 87.0663 13.9338L87.875 14.7413L89.9325 12.6838C90.1762 12.44 90.5725 12.44 90.8163 12.6838C91.06 12.9275 91.0613 13.3225 90.8175 13.5675ZM90.8175 8.5675L88.3175 11.0675C88.195 11.1888 88.035 11.25 87.875 11.25C87.715 11.25 87.555 11.1888 87.4325 11.0675L86.1825 9.8175C85.9387 9.57375 85.9387 9.1775 86.1825 8.93375C86.4262 8.69 86.8225 8.69 87.0663 8.93375L87.875 9.74125L89.9325 7.68375C90.1762 7.44 90.5725 7.44 90.8163 7.68375C91.06 7.9275 91.0613 8.3225 90.8175 8.5675ZM95.375 15H92.875C92.53 15 92.25 14.72 92.25 14.375C92.25 14.03 92.53 13.75 92.875 13.75H95.375C95.72 13.75 96 14.03 96 14.375C96 14.72 95.72 15 95.375 15ZM95.375 10H92.875C92.53 10 92.25 9.72 92.25 9.375C92.25 9.03 92.53 8.75 92.875 8.75H95.375C95.72 8.75 96 9.03 96 9.375C96 9.72 95.72 10 95.375 10Z" fill="#D35400"/>
<path d="M162 1C162 0.447715 162.448 0 163 0H174.936C175.488 0 175.936 0.447715 175.936 1V17.5712C175.936 18.4641 174.854 18.9094 174.226 18.2753L169.809 13.8209C169.424 13.4321 168.797 13.4256 168.404 13.8062L163.695 18.3604C163.061 18.9742 162 18.5245 162 17.6416V1Z" fill="black" fill-opacity="0.5"/>
<g clip-path="url(#clip0_14_1154)">
<path d="M246.793 9.63406C248.117 9.63406 249.263 9.15936 250.199 8.22278C251.136 7.28635 251.61 6.14057 251.61 4.81688C251.61 3.49364 251.136 2.34771 250.199 1.41097C249.263 0.474699 248.117 0 246.793 0C245.47 0 244.324 0.474699 243.387 1.41113C242.451 2.34756 241.976 3.49349 241.976 4.81688C241.976 6.14057 242.451 7.2865 243.388 8.22293C244.324 9.1592 245.47 9.63406 246.793 9.63406Z" fill="black" fill-opacity="0.5"/>
<path d="M255.222 15.3791C255.195 14.9894 255.14 14.5643 255.06 14.1154C254.979 13.6631 254.874 13.2356 254.749 12.8448C254.62 12.4409 254.444 12.042 254.227 11.6598C254.001 11.2631 253.736 10.9176 253.439 10.6333C253.128 10.3359 252.748 10.0968 252.308 9.92242C251.869 9.74893 251.383 9.66104 250.863 9.66104C250.659 9.66104 250.462 9.74481 250.08 9.99307C249.846 10.1461 249.571 10.3231 249.265 10.5189C249.003 10.6858 248.648 10.8422 248.21 10.9838C247.782 11.1222 247.348 11.1924 246.919 11.1924C246.49 11.1924 246.056 11.1222 245.628 10.9838C245.19 10.8424 244.835 10.686 244.574 10.519C244.27 10.3251 243.995 10.1481 243.757 9.99292C243.376 9.74466 243.179 9.66089 242.975 9.66089C242.455 9.66089 241.969 9.74893 241.53 9.92258C241.091 10.0967 240.71 10.3358 240.399 10.6335C240.102 10.9179 239.837 11.2632 239.611 11.6598C239.394 12.042 239.219 12.4407 239.089 12.8449C238.964 13.2357 238.86 13.6631 238.778 14.1154C238.698 14.5637 238.643 14.9889 238.616 15.3796C238.59 15.7622 238.576 16.1594 238.576 16.5606C238.576 17.6046 238.908 18.4498 239.563 19.0731C240.209 19.6882 241.064 20.0002 242.104 20.0002H251.735C252.775 20.0002 253.63 19.6883 254.276 19.0731C254.931 18.4502 255.262 17.6049 255.262 16.5604C255.262 16.1574 255.249 15.76 255.222 15.3791Z" fill="black" fill-opacity="0.5"/>
</g>
<defs>
<clipPath id="clip0_14_1154">
<rect width="19.9999" height="20" fill="white" transform="translate(236.936)"/>
</clipPath>
</defs>
</svg>
