<svg width="20" height="20" viewBox="0 0 20 20" fill="none" xmlns="http://www.w3.org/2000/svg">
<g clip-path="url(#clip0_28_216)">
<path d="M16.6193 4.59912C16.4974 4.52733 16.3474 4.52233 16.221 4.5858C16.0948 4.64944 16.0095 4.77276 15.9943 4.9133C15.9793 5.04998 15.956 5.18662 15.9268 5.32998C15.111 9.03248 13.4727 10.8333 10.9169 10.8333H7.16686C6.96913 10.8337 6.79889 10.9729 6.75936 11.1666L5.50936 17.0258L5.28605 18.5175C5.15765 19.1958 5.60343 19.8498 6.28171 19.9782C6.35651 19.9923 6.43241 19.9996 6.50854 20H9.01686C9.59178 20.0017 10.093 19.6094 10.2294 19.0508L11.2427 15H13.4168C15.9827 15 17.756 12.9542 18.4102 9.23916C18.842 7.47018 18.1276 5.61932 16.6193 4.59912Z" fill="#03A9F4"/>
<path d="M15.8336 1.48503C15.0102 0.551084 13.8286 0.0111631 12.5836 3.03448e-05H5.68358C4.65097 -0.00551652 3.77183 0.74999 3.62195 1.77167L1.47945 16.0641C1.37683 16.7468 1.84703 17.3834 2.52972 17.4861C2.59168 17.4954 2.65429 17.5 2.71695 17.5H5.91694C6.11468 17.4996 6.28491 17.3604 6.32444 17.1667L7.50362 11.6667H10.9203C13.8853 11.6667 15.8445 9.59419 16.7445 5.50002C16.7806 5.33682 16.8084 5.1719 16.8278 5.00584C17.0367 3.74276 16.6723 2.45225 15.8336 1.48503Z" fill="#283593"/>
</g>
<defs>
<clipPath id="clip0_28_216">
<rect width="20" height="20" fill="white"/>
</clipPath>
</defs>
</svg>
