<svg width="15" height="15" viewBox="0 0 15 15" fill="none" xmlns="http://www.w3.org/2000/svg">
<g clip-path="url(#clip0_28_380)">
<path d="M7.49998 0C3.36457 0 0 3.36457 0 7.49998C0 11.6354 3.36457 15 7.49998 15C11.6354 15 15 11.6354 15 7.49998C15 3.36457 11.6354 0 7.49998 0ZM7.49998 14.3478C3.7239 14.3478 0.652163 11.2761 0.652163 7.49998C0.652163 3.7239 3.7239 0.652163 7.49998 0.652163C11.2761 0.652163 14.3478 3.7239 14.3478 7.49998C14.3478 11.2761 11.2761 14.3478 7.49998 14.3478Z" fill="#34495E"/>
<path d="M10.6656 10.2046L7.82608 7.36501V2.28264C7.82608 2.10264 7.67998 1.95654 7.49999 1.95654C7.31999 1.95654 7.17389 2.10264 7.17389 2.28264V7.50004C7.17389 7.58677 7.20846 7.66961 7.26912 7.73091L10.2039 10.6657C10.2678 10.7289 10.3513 10.7609 10.4348 10.7609C10.5182 10.7609 10.6017 10.729 10.6656 10.6657C10.7928 10.5385 10.7928 10.3318 10.6656 10.2046Z" fill="#34495E"/>
</g>
<defs>
<clipPath id="clip0_28_380">
<rect width="15" height="15" fill="white"/>
</clipPath>
</defs>
</svg>
